<svg width="66" height="72" viewBox="0 0 66 72" fill="none" xmlns="http://www.w3.org/2000/svg">
<path fill-rule="evenodd" clip-rule="evenodd" d="M2.62083 5.83334C2.73252 4.88686 3.0637 3.97954 3.58796 3.18365C4.11223 2.38776 4.81511 1.72529 5.64061 1.24901C6.46611 0.772732 7.39142 0.495798 8.34285 0.44027C9.29427 0.384741 10.2455 0.552152 11.1208 0.929169C15.5458 2.82084 25.4625 7.31667 38.0458 14.5792C50.6333 21.8458 59.4875 28.1917 63.3333 31.0708C66.6167 33.5333 66.625 38.4167 63.3375 40.8875C59.5292 43.75 50.7833 50.0125 38.0458 57.3708C25.2958 64.7292 15.4958 69.1708 11.1125 71.0375C7.33749 72.65 3.11249 70.2042 2.62083 66.1333C2.04583 61.375 0.970825 50.5708 0.970825 35.9792C0.970825 21.3958 2.04166 10.5958 2.62083 5.83334Z" fill="#E34010"/>
</svg>
